# xmcd
#
# Track frame offsets:
#	150
#	17373
#	29496
#	46869
#	64842
#	79215
#	93513
#	108561
#	125034
#	141057
#	159780
#	176028
#	193326
#
# Disc length: 2787 seconds
#
# Revision: 1
# Processed by: cddbd v1.5.2PL0 Copyright (c) Steve Scherf et al.
# Submitted via: audiograbber 1.83.01
#
DISCID=ae0ae10d
DTITLE=Craig Campbell - Never Regret
DYEAR=2013
DGENRE=Country
TTITLE0=Truck-N-Roll
TTITLE1=Keep Them Kisses Comin'
TTITLE2=When She Grows Up
TTITLE3=Tomorrow Is Gone
TTITLE4=Never Regret
TTITLE5=My Baby's Daddy
TTITLE6=Topless
TTITLE7=When Ends Don't Meet
TTITLE8=Outta My Head
TTITLE9=That's Why God Made A Front Porch
TTITLE10=You Can Come Over
TTITLE11=Lotta Good That Does Me Now
TTITLE12=The Sunshine Club (with Troy Cassar-Daley)
EXTD=
EXTT0=
EXTT1=
EXTT2=
EXTT3=
EXTT4=
EXTT5=
EXTT6=
EXTT7=
EXTT8=
EXTT9=
EXTT10=
EXTT11=
EXTT12=
PLAYORDER=
